<svg width="699" height="700" viewBox="0 0 699 700" fill="none" xmlns="http://www.w3.org/2000/svg">
<path fill-rule="evenodd" clip-rule="evenodd" d="M347.767 5.91065C348.119 9.16151 348.741 16.2543 349.148 21.6724C349.555 27.0905 349.294 37.5734 348.568 44.9683C347.842 52.3618 346.021 63.2164 344.522 69.089C343.024 74.9615 337.62 90.4855 332.513 103.587C327.407 116.688 321.725 133.318 319.888 140.542C317.067 151.637 316.534 156.77 316.458 173.6L316.367 193.521L312.652 191.332C310.608 190.126 304.528 184.776 299.141 179.442C293.567 173.922 287.269 166.025 284.521 161.11C281.867 156.362 278.034 146.54 276.003 139.285C273.974 132.03 270.863 123.12 269.092 119.487C267.321 115.853 263.79 110.444 261.243 107.468C258.696 104.49 253.992 100.519 250.79 98.6409C247.588 96.764 244.676 95.2272 244.319 95.2272C243.963 95.2272 245.933 99.8086 248.698 105.407C251.463 111.005 254.802 119.133 256.117 123.467C257.989 129.639 258.507 135.761 258.503 151.707C258.5 162.904 257.982 178.386 257.351 186.112C256.392 197.881 256.574 201.468 258.47 208.231C259.716 212.671 260.438 216.601 260.074 216.963C259.712 217.327 255.973 216.629 251.768 215.413C247.563 214.197 239.395 210.754 233.619 207.762C225.643 203.633 220.079 199.316 210.493 189.821C203.549 182.945 190.78 168.158 182.115 156.961C173.452 145.763 161.999 132.464 156.667 127.406C151.104 122.132 143.051 116.161 137.78 113.404C132.725 110.76 125.34 107.687 121.369 106.576C117.398 105.463 111.49 104.387 108.24 104.184C104.698 103.963 102.595 104.332 102.986 105.105C103.347 105.813 107.059 109.237 111.236 112.715C115.414 116.193 121.831 122.104 125.498 125.85C129.165 129.596 134.671 135.912 137.732 139.885C140.795 143.859 146.022 151.838 149.347 157.617C152.674 163.397 159.573 177.825 164.679 189.682C169.786 201.539 176.858 216.02 180.397 221.862C183.935 227.705 189.572 235.737 192.923 239.71C196.274 243.683 202.37 250.018 206.471 253.789C210.571 257.559 214.368 260.662 214.91 260.685C215.453 260.707 215.895 261.252 215.895 261.897C215.895 262.541 214.395 263.444 212.559 263.905C210.725 264.366 202.5 264.754 194.281 264.767C184.709 264.782 176.353 264.025 171.032 262.659C166.462 261.486 157.702 257.766 151.565 254.391C145.427 251.016 137.197 246.87 133.274 245.177C129.094 243.372 122.304 241.813 116.863 241.408C111.603 241.018 105.167 241.375 102.004 242.236C98.9361 243.07 96.4246 244.254 96.4246 244.868C96.4246 245.483 98.6407 246.382 101.348 246.867C104.056 247.353 111.588 250.32 118.087 253.463C125.906 257.245 133.5 262.313 140.541 268.453C146.392 273.554 156.261 284.099 162.472 291.884C168.683 299.67 175.729 307.588 178.132 309.479C180.533 311.371 184.992 314.191 188.037 315.745C191.085 317.3 193.576 318.811 193.576 319.106C193.576 319.399 190.475 321.413 186.684 323.583C182.894 325.752 175.065 329.158 169.288 331.15C159.403 334.56 157.436 334.774 135.81 334.802C119.102 334.823 108.717 334.14 97.7374 332.298C87.077 330.511 76.2721 329.766 60.9772 329.766C41.497 329.766 38.4551 330.078 30.7814 332.866C26.0879 334.571 18.4077 338.452 13.7142 341.491C9.02068 344.529 4.01474 348.332 2.59028 349.941L0 352.866L3.90314 351.819C6.04967 351.244 18.1451 350.795 30.7814 350.821C49.8534 350.86 55.7166 351.354 65.2939 353.726C71.639 355.297 89.4585 361.313 104.893 367.092C120.328 372.873 136.699 378.542 141.276 379.689C146.329 380.957 157.844 382.021 170.601 382.401C182.155 382.745 192.374 382.497 193.311 381.851C194.654 380.925 194.725 378.894 193.649 372.254C192.898 367.623 192.279 357.261 192.274 349.229C192.268 341.197 193.145 329.57 194.221 323.392C195.299 317.213 197.724 307.236 199.61 301.219C201.498 295.202 206.004 284.485 209.626 277.403C213.247 270.322 218.902 260.865 222.19 256.387C225.48 251.911 231.466 244.785 235.491 240.553C239.516 236.321 246.649 229.832 251.342 226.136C256.036 222.439 260.171 219.104 260.532 218.726C260.894 218.347 262.961 216.985 265.128 215.701C267.294 214.416 273.179 211.242 278.208 208.647C283.236 206.053 294.165 201.702 302.496 198.978C312.471 195.716 322.573 193.47 332.084 192.401C340.674 191.434 351.557 191.128 358.947 191.647C365.78 192.125 375.823 193.436 381.266 194.559C386.709 195.682 394.707 197.785 399.04 199.231C403.372 200.677 412.825 204.707 420.045 208.188C427.266 211.668 437.909 218.052 443.698 222.376C449.485 226.699 458.699 234.925 464.172 240.657C469.645 246.388 476.474 254.578 479.346 258.856C482.219 263.136 486.397 269.887 488.635 273.86C490.87 277.834 494.556 285.772 496.824 291.503C499.093 297.234 502.105 306.789 503.517 312.739C504.93 318.688 506.617 329.175 507.265 336.042C507.98 343.59 507.96 354.151 507.218 362.747C506.542 370.569 504.528 382.469 502.743 389.192C500.957 395.914 497.301 406.528 494.619 412.776C491.935 419.026 486.338 429.321 482.182 435.655C478.024 441.988 470.102 451.905 464.575 457.691C459.049 463.478 450.315 471.431 445.164 475.365C440.014 479.298 432.193 484.545 427.786 487.026C423.379 489.507 415.306 493.343 409.846 495.548C404.386 497.753 395.585 500.737 390.289 502.18C384.993 503.622 374.812 505.528 367.665 506.417C360.24 507.34 349.254 507.703 342.035 507.263C335.085 506.839 324.772 505.536 319.116 504.368C313.462 503.199 303.877 500.555 297.816 498.493C291.756 496.431 281.687 492.024 275.44 488.699C269.193 485.375 263.926 482.814 263.735 483.007C263.543 483.201 263.9 486.02 264.528 489.271C265.156 492.522 265.695 500.089 265.726 506.087C265.758 512.085 264.878 520.951 263.77 525.789C262.663 530.627 259.393 539.019 256.503 544.437C253.614 549.855 249.489 557.989 247.337 562.514C245.185 567.038 242.936 574.307 242.34 578.667C241.74 583.058 241.78 589.936 242.429 594.084C243.074 598.203 244.102 602.075 244.714 602.688C245.326 603.302 246.234 601.938 246.734 599.661C247.234 597.382 248.919 592.445 250.479 588.691C252.037 584.935 255.194 578.614 257.496 574.643C259.797 570.672 265.235 563.203 269.581 558.046C273.926 552.888 283.744 543.831 291.398 537.921C300.044 531.243 307.496 524.208 311.075 519.343C314.243 515.037 317.205 510.352 317.655 508.931C318.107 507.508 318.998 506.346 319.636 506.346C320.274 506.346 323.199 511.223 326.138 517.182C329.074 523.143 332.449 532.451 333.635 537.87C334.989 544.052 335.778 553.591 335.754 563.482C335.733 572.176 334.381 589.255 332.74 601.573C331.061 614.184 329.764 630.763 329.76 639.664C329.757 650.354 330.478 658.172 332.002 663.963C333.239 668.659 336.266 676.13 338.731 680.567C341.195 685.004 345.347 691.191 347.957 694.317L352.703 700L351.656 690.848C351.078 685.814 350.643 674.898 350.688 666.59C350.731 658.283 351.728 646.448 352.9 640.291C354.073 634.134 357.036 623.2 359.486 615.991C361.935 608.784 366.611 596.385 369.874 588.438C373.138 580.492 377.472 567.488 379.505 559.542C382.747 546.876 383.208 542.639 383.244 525.188C383.271 512.297 383.747 505.551 384.598 506.045C385.32 506.463 389.318 509.456 393.481 512.697C397.645 515.937 403.994 522.184 407.592 526.579C411.19 530.974 415.523 537.528 417.221 541.145C418.919 544.761 421.868 553.193 423.773 559.879C425.679 566.568 428.981 575.493 431.11 579.714C433.241 583.936 436.509 589.204 438.374 591.421C440.238 593.638 444.512 597.273 447.869 599.498C451.226 601.723 454.431 603.543 454.99 603.543C455.549 603.543 454.027 599.537 451.609 594.642C449.191 589.747 445.833 581.323 444.147 575.925C441.516 567.5 441.087 563.41 441.119 547.064C441.14 536.589 441.658 521.208 442.27 512.884C443.2 500.208 443.019 496.508 441.154 490.086C439.929 485.87 439.213 482.135 439.564 481.784C439.913 481.433 443.61 482.139 447.778 483.351C451.945 484.563 458.9 487.344 463.231 489.532C467.562 491.719 474.092 495.733 477.741 498.452C481.39 501.171 488.544 507.753 493.638 513.08C498.733 518.406 508.777 530.443 515.957 539.829C523.138 549.215 532.839 560.954 537.514 565.915C542.189 570.876 549.646 577.529 554.085 580.698C558.525 583.867 566.053 587.927 570.816 589.72C575.578 591.515 583.629 593.478 588.706 594.085C593.784 594.692 597.938 594.825 597.938 594.382C597.938 593.938 595.082 591.395 591.589 588.731C588.097 586.066 579.965 578.409 573.518 571.714C567.072 565.019 559.674 556.291 557.079 552.318C554.484 548.344 550.468 541.659 548.153 537.462C545.839 533.264 540.105 520.852 535.413 509.879C530.72 498.905 524.893 486.381 522.463 482.047C520.033 477.712 516.033 471.35 513.572 467.908C511.112 464.467 505.066 457.491 500.138 452.407C495.211 447.322 489.37 441.746 487.16 440.017C484.951 438.285 483.437 436.577 483.795 436.218C484.154 435.858 489.516 434.935 495.71 434.165C503.759 433.164 509.91 433.173 517.277 434.199C522.948 434.987 530.269 436.529 533.55 437.626C536.831 438.722 544.538 442.462 550.675 445.939C556.813 449.416 565.625 453.496 570.257 455.003C575.315 456.652 581.87 457.707 586.667 457.646C591.062 457.591 597.019 456.813 599.908 455.918L605.159 454.29L595.586 451.221C590.321 449.534 581.631 445.654 576.276 442.6C570.92 439.548 562.614 433.603 557.82 429.392C553.025 425.18 544.211 415.504 538.231 407.889C532.252 400.273 525.061 392.203 522.252 389.956C519.442 387.707 514.589 384.563 511.464 382.968C508.339 381.374 505.988 379.878 506.239 379.643C506.49 379.409 509.648 377.503 513.259 375.407C516.869 373.31 522.522 370.58 525.821 369.338C529.121 368.097 536.41 366.203 542.02 365.129C547.629 364.056 556.755 363.177 562.299 363.177C567.844 363.177 584.709 364.654 599.778 366.461C614.845 368.267 633.204 369.744 640.574 369.744C649.706 369.744 657.264 368.902 664.312 367.099C670.339 365.557 678.229 362.277 683.23 359.236C687.948 356.366 693.427 352.664 695.404 351.007L699 347.996L672.429 348.034C651.431 348.064 643.861 347.586 636.338 345.757C631.103 344.485 624.013 342.497 620.584 341.342C617.155 340.186 604.601 335.511 592.687 330.952C580.773 326.393 566.003 321.323 559.865 319.684C550.527 317.191 545.224 316.691 527.375 316.626C515.643 316.584 506.042 316.158 506.041 315.681C506.039 315.205 508.524 311.658 511.562 307.801C514.602 303.943 517.998 299.845 519.111 298.693C520.225 297.541 524.545 293.857 528.711 290.503C532.878 287.151 538.162 283.438 540.456 282.252C542.748 281.065 550.493 278.417 557.665 276.365C564.837 274.315 574.35 270.93 578.805 268.844C583.259 266.76 589.062 263.157 591.701 260.838C594.341 258.52 598.295 253.705 600.489 250.136C602.683 246.569 604.173 243.65 603.802 243.65C603.429 243.65 598.936 245.761 593.817 248.339C588.698 250.919 580.259 254.116 575.066 255.445C569.872 256.775 560.289 258.28 553.771 258.789C545.563 259.432 536.102 259.035 522.995 257.501C506.039 255.515 503.18 255.486 495.535 257.219C490.842 258.284 485.714 259.566 484.138 260.069L481.275 260.984L483.256 253.303C484.346 249.078 487.209 241.65 489.619 236.798C492.031 231.945 496.648 224.535 499.881 220.332C503.114 216.128 509.534 209.164 514.147 204.855C518.761 200.547 531.378 190.137 542.185 181.722C552.992 173.308 565.526 162.669 570.04 158.08C574.552 153.49 579.791 147.45 581.68 144.656C583.569 141.862 586.787 135.886 588.83 131.378C590.874 126.869 593.217 119.319 594.039 114.6C594.861 109.88 595.335 104.699 595.095 103.083C594.705 100.476 594.182 100.808 590.434 106.048C588.113 109.293 581.106 117.059 574.865 123.303C568.623 129.547 558.631 137.909 552.658 141.885C546.685 145.86 535.082 152.257 526.872 156.099C518.662 159.94 505.447 165.99 497.504 169.541C489.561 173.093 478.036 179.342 471.892 183.427C465.481 187.69 455.589 196.163 448.674 203.315C440.434 211.837 436.398 215.183 435.907 213.904C435.512 212.875 434.811 206.587 434.349 199.93C433.862 192.918 434.131 183.683 434.99 177.976C436.187 170.025 438.377 164.327 446.35 148.419C453.495 134.167 456.62 126.337 457.65 120.122C458.705 113.75 458.672 109.601 457.522 104.059C456.67 99.9492 455.49 96.2885 454.899 95.9233C454.31 95.5582 453.158 97.9172 452.34 101.167C451.523 104.415 449.439 110.274 447.709 114.186C445.98 118.099 442.189 124.799 439.287 129.076C436.384 133.352 430.9 140.255 427.099 144.414C423.3 148.574 415.432 155.595 409.615 160.013C403.799 164.433 396.276 170.922 392.898 174.433C389.52 177.944 385.529 183.427 384.03 186.62C382.53 189.812 380.732 192.425 380.033 192.425C379.336 192.425 376.368 187.469 373.437 181.412C370.507 175.355 367.147 166.046 365.972 160.725C364.671 154.834 363.843 145.142 363.857 135.945C363.869 127.526 365.232 110.957 366.937 98.5109C368.775 85.0871 369.999 69.6341 370.004 59.7633C370.012 48.0681 369.343 40.8886 367.678 34.8072C366.393 30.1115 363.513 22.8296 361.28 18.6238C359.046 14.4181 354.948 8.5074 352.173 5.48903L347.126 0L347.767 5.91065ZM188.981 390.299C186.093 394.35 180.481 400.585 176.509 404.156C172.538 407.727 165.744 412.625 161.411 415.041C157.079 417.455 147.144 421.263 139.335 423.501C131.527 425.739 122.665 428.817 119.643 430.339C116.62 431.863 111.641 435.142 108.576 437.629C105.511 440.115 101.452 444.799 99.5544 448.038C97.6573 451.276 96.372 454.192 96.6976 454.517C97.0232 454.843 100.492 453.387 104.405 451.278C108.32 449.172 115.233 446.206 119.766 444.689C124.299 443.173 134.343 441.288 142.085 440.503C153.797 439.313 159.379 439.456 175.341 441.359C190.31 443.143 196.232 443.342 202.316 442.271C206.603 441.515 211.939 440.107 214.175 439.143L218.24 437.388L211.722 425.722C208.136 419.306 203.177 408.001 200.703 400.599C198.228 393.199 196.202 386.184 196.202 385.011C196.202 383.839 195.758 382.892 195.218 382.908C194.677 382.922 191.87 386.249 188.981 390.299ZM216.844 443.627C216.456 445.976 214.846 451.327 213.269 455.52C211.693 459.712 207.509 467.471 203.972 472.76C200.435 478.051 192.342 487.328 185.987 493.378C179.631 499.427 167.071 509.946 158.075 516.755C149.078 523.564 136.656 534.211 130.468 540.416C123.685 547.219 117.353 555.08 114.521 560.217C111.937 564.902 108.92 571.987 107.818 575.96C106.713 579.934 105.403 586.582 104.906 590.737C104.407 594.892 104.275 598.289 104.613 598.289C104.95 598.289 107.908 594.892 111.186 590.737C114.463 586.582 121.197 579.223 126.149 574.382C131.101 569.54 137.813 563.579 141.062 561.136C144.311 558.693 150.977 554.287 155.875 551.344C160.773 548.402 173.18 542.321 183.445 537.83C193.71 533.341 206.246 527.602 211.3 525.078C216.355 522.554 224.593 517.75 229.607 514.403C234.62 511.055 243.653 503.357 249.68 497.295C255.708 491.233 261.199 485.225 261.883 483.945C262.91 482.026 261.919 480.748 256.251 476.684C252.469 473.971 245.618 468.158 241.03 463.764C236.441 459.372 229.743 452.084 226.147 447.568C222.55 443.053 219.144 439.359 218.58 439.359C218.014 439.359 217.233 441.279 216.844 443.627Z" fill="#14D0EA"/>
</svg>
