<svg xmlns="http://www.w3.org/2000/svg" xmlns:xlink="http://www.w3.org/1999/xlink" width="500" zoomAndPan="magnify" viewBox="0 0 375 374.999991" height="500" preserveAspectRatio="xMidYMid meet" version="1.0"><defs><filter x="0%" y="0%" width="100%" height="100%" id="f4ab4549ab"><feColorMatrix values="0 0 0 0 1 0 0 0 0 1 0 0 0 0 1 0 0 0 1 0" color-interpolation-filters="sRGB"/></filter><g/><clipPath id="a6ed99a9ed"><path d="M 37 144 L 90 144 L 90 197 L 37 197 Z M 37 144 " clip-rule="nonzero"/></clipPath><clipPath id="f34cbe4486"><path d="M 70.707031 136.113281 L 97.953125 163.09375 L 64.746094 196.632812 L 37.496094 169.652344 Z M 70.707031 136.113281 " clip-rule="nonzero"/></clipPath><clipPath id="84051f34ce"><path d="M 79.015625 145.898438 C 80.878906 146.804688 82.777344 148.070312 84.335938 149.613281 C 85.894531 151.15625 87.132812 152.90625 88.042969 154.75 C 88.058594 154.796875 88.085938 154.824219 88.101562 154.867188 C 91.410156 161.910156 90.265625 170.714844 84.535156 176.648438 L 64.746094 196.632812 L 37.496094 169.652344 L 57.269531 149.683594 C 63.195312 143.847656 71.925781 142.558594 79.015625 145.898438 " clip-rule="nonzero"/></clipPath><mask id="c32b725f6c"><g filter="url(#f4ab4549ab)"><rect x="-37.5" width="450" fill="#000000" y="-37.499999" height="449.999989" fill-opacity="0.498"/></g></mask><clipPath id="2d54597641"><path d="M 0.441406 8 L 53 8 L 53 60.921875 L 0.441406 60.921875 Z M 0.441406 8 " clip-rule="nonzero"/></clipPath><clipPath id="9b44931d7f"><path d="M 33.707031 0.230469 L 60.953125 27.210938 L 27.746094 60.75 L 0.496094 33.769531 Z M 33.707031 0.230469 " clip-rule="nonzero"/></clipPath><clipPath id="6151dce086"><path d="M 42.015625 10.015625 C 43.878906 10.917969 45.777344 12.183594 47.335938 13.726562 C 48.894531 15.269531 50.132812 17.023438 51.042969 18.867188 C 51.058594 18.910156 51.085938 18.941406 51.101562 18.984375 C 54.410156 26.023438 53.265625 34.828125 47.535156 40.765625 L 27.746094 60.75 L 0.496094 33.769531 L 20.269531 13.800781 C 26.195312 7.964844 34.925781 6.671875 42.015625 10.015625 " clip-rule="nonzero"/></clipPath><clipPath id="4c41234ddb"><rect x="0" width="62" y="0" height="61"/></clipPath><mask id="dce00ed57c"><g filter="url(#f4ab4549ab)"><rect x="-37.5" width="450" fill="#000000" y="-37.499999" height="449.999989" fill-opacity="0.698"/></g></mask><clipPath id="2b8fc13c67"><path d="M 0.441406 8 L 53 8 L 53 61.238281 L 0.441406 61.238281 Z M 0.441406 8 " clip-rule="nonzero"/></clipPath><clipPath id="7efae60ed5"><path d="M 33.707031 0.671875 L 60.953125 27.652344 L 27.746094 61.191406 L 0.496094 34.210938 Z M 33.707031 0.671875 " clip-rule="nonzero"/></clipPath><clipPath id="97115591ef"><path d="M 42.015625 10.457031 C 43.878906 11.359375 45.777344 12.625 47.335938 14.167969 C 48.894531 15.714844 50.132812 17.464844 51.042969 19.308594 C 51.058594 19.355469 51.085938 19.382812 51.101562 19.425781 C 54.410156 26.46875 53.265625 35.269531 47.535156 41.207031 L 27.746094 61.191406 L 0.496094 34.210938 L 20.269531 14.242188 C 26.195312 8.40625 34.925781 7.113281 42.015625 10.457031 " clip-rule="nonzero"/></clipPath><clipPath id="9ef64ad068"><rect x="0" width="62" y="0" height="62"/></clipPath></defs><g clip-path="url(#a6ed99a9ed)"><g clip-path="url(#f34cbe4486)"><g clip-path="url(#84051f34ce)"><path fill="#1b1e31" d="M 70.707031 136.113281 L 97.953125 163.09375 L 64.746094 196.632812 L 37.496094 169.652344 Z M 70.707031 136.113281 " fill-opacity="1" fill-rule="nonzero"/></g></g></g><g mask="url(#c32b725f6c)"><g transform="matrix(1, 0, 0, 1, 37, 163)"><g clip-path="url(#4c41234ddb)"><g clip-path="url(#2d54597641)"><g clip-path="url(#9b44931d7f)"><g clip-path="url(#6151dce086)"><path fill="#1b1e31" d="M 33.707031 0.230469 L 60.953125 27.210938 L 27.746094 60.75 L 0.496094 33.769531 Z M 33.707031 0.230469 " fill-opacity="1" fill-rule="nonzero"/></g></g></g></g></g></g><g fill="#000000" fill-opacity="1"><g transform="translate(109.962898, 204.375432)"><g><path d="M 3.515625 -48.25 L 21.109375 -48.25 C 26.023438 -48.25 30.003906 -46.976562 33.046875 -44.4375 C 36.085938 -41.90625 37.609375 -38.222656 37.609375 -33.390625 C 37.609375 -28.554688 36.066406 -24.765625 32.984375 -22.015625 C 29.898438 -19.265625 25.941406 -17.890625 21.109375 -17.890625 L 14.5 -17.890625 L 14.5 0 L 3.515625 0 Z M 14.5 -26.671875 L 17.609375 -26.671875 C 20.054688 -26.671875 22.070312 -27.164062 23.65625 -28.15625 C 25.238281 -29.15625 26.03125 -30.785156 26.03125 -33.046875 C 26.03125 -35.347656 25.238281 -36.992188 23.65625 -37.984375 C 22.070312 -38.984375 20.054688 -39.484375 17.609375 -39.484375 L 14.5 -39.484375 Z M 14.5 -26.671875 "/></g></g></g><g fill="#000000" fill-opacity="1"><g transform="translate(148.909888, 204.375432)"><g><path d="M 6.34375 -3.5625 C 3.007812 -6.53125 1.34375 -10.332031 1.34375 -14.96875 C 1.34375 -19.613281 3.078125 -23.425781 6.546875 -26.40625 C 10.015625 -29.382812 14.304688 -30.875 19.421875 -30.875 C 24.453125 -30.875 28.691406 -29.375 32.140625 -26.375 C 35.585938 -23.375 37.3125 -19.570312 37.3125 -14.96875 C 37.3125 -10.375 35.625 -6.582031 32.25 -3.59375 C 28.875 -0.613281 24.597656 0.875 19.421875 0.875 C 14.035156 0.875 9.675781 -0.601562 6.34375 -3.5625 Z M 14.359375 -20.0625 C 13.015625 -18.738281 12.34375 -17.039062 12.34375 -14.96875 C 12.34375 -12.90625 12.984375 -11.21875 14.265625 -9.90625 C 15.554688 -8.601562 17.253906 -7.953125 19.359375 -7.953125 C 21.390625 -7.953125 23.054688 -8.613281 24.359375 -9.9375 C 25.660156 -11.269531 26.3125 -12.945312 26.3125 -14.96875 C 26.3125 -17.039062 25.640625 -18.738281 24.296875 -20.0625 C 22.953125 -21.382812 21.304688 -22.046875 19.359375 -22.046875 C 17.367188 -22.046875 15.703125 -21.382812 14.359375 -20.0625 Z M 14.359375 -20.0625 "/></g></g></g><g fill="#000000" fill-opacity="1"><g transform="translate(187.564476, 204.375432)"><g><path d="M 3.515625 0 L 3.515625 -30 L 13.859375 -30 L 13.859375 -25.671875 L 13.984375 -25.671875 C 14.054688 -25.828125 14.179688 -26.019531 14.359375 -26.25 C 14.535156 -26.488281 14.914062 -26.898438 15.5 -27.484375 C 16.082031 -28.066406 16.703125 -28.59375 17.359375 -29.0625 C 18.023438 -29.53125 18.882812 -29.945312 19.9375 -30.3125 C 20.988281 -30.6875 22.0625 -30.875 23.15625 -30.875 C 24.289062 -30.875 25.398438 -30.71875 26.484375 -30.40625 C 27.578125 -30.09375 28.378906 -29.78125 28.890625 -29.46875 L 29.703125 -29.015625 L 25.375 -20.234375 C 24.09375 -21.328125 22.300781 -21.875 20 -21.875 C 18.75 -21.875 17.675781 -21.597656 16.78125 -21.046875 C 15.882812 -20.503906 15.25 -19.84375 14.875 -19.0625 C 14.507812 -18.28125 14.25 -17.617188 14.09375 -17.078125 C 13.9375 -16.535156 13.859375 -16.109375 13.859375 -15.796875 L 13.859375 0 Z M 3.515625 0 "/></g></g></g><g fill="#000000" fill-opacity="1"><g transform="translate(216.68699, 204.375432)"><g><path d="M 5.265625 -30 L 5.265625 -41.171875 L 15.609375 -41.171875 L 15.609375 -30 L 21.9375 -30 L 21.9375 -22.109375 L 15.609375 -22.109375 L 15.609375 -12.578125 C 15.609375 -9.804688 16.390625 -8.421875 17.953125 -8.421875 C 18.347656 -8.421875 18.757812 -8.5 19.1875 -8.65625 C 19.613281 -8.8125 19.941406 -8.96875 20.171875 -9.125 L 20.53125 -9.359375 L 23.09375 -1 C 20.875 0.25 18.34375 0.875 15.5 0.875 C 13.550781 0.875 11.875 0.535156 10.46875 -0.140625 C 9.0625 -0.828125 8 -1.742188 7.28125 -2.890625 C 6.5625 -4.046875 6.046875 -5.253906 5.734375 -6.515625 C 5.421875 -7.785156 5.265625 -9.140625 5.265625 -10.578125 L 5.265625 -22.109375 L 0.9375 -22.109375 L 0.9375 -30 Z M 5.265625 -30 "/></g></g></g><g fill="#000000" fill-opacity="1"><g transform="translate(239.786177, 204.375432)"><g><path d="M 5.546875 -3.71875 C 2.742188 -6.78125 1.34375 -10.53125 1.34375 -14.96875 C 1.34375 -19.414062 2.742188 -23.175781 5.546875 -26.25 C 8.359375 -29.332031 11.929688 -30.875 16.265625 -30.875 C 20.234375 -30.875 23.503906 -29.628906 26.078125 -27.140625 L 26.078125 -30 L 36.4375 -30 L 36.4375 0 L 26.203125 0 L 26.203125 -3.390625 L 26.078125 -3.390625 C 23.503906 -0.546875 20.234375 0.875 16.265625 0.875 C 11.929688 0.875 8.359375 -0.65625 5.546875 -3.71875 Z M 14.359375 -20.0625 C 13.015625 -18.738281 12.34375 -17.039062 12.34375 -14.96875 C 12.34375 -12.90625 12.984375 -11.21875 14.265625 -9.90625 C 15.554688 -8.601562 17.253906 -7.953125 19.359375 -7.953125 C 21.390625 -7.953125 23.054688 -8.613281 24.359375 -9.9375 C 25.660156 -11.269531 26.3125 -12.945312 26.3125 -14.96875 C 26.3125 -17.039062 25.640625 -18.738281 24.296875 -20.0625 C 22.953125 -21.382812 21.304688 -22.046875 19.359375 -22.046875 C 17.367188 -22.046875 15.703125 -21.382812 14.359375 -20.0625 Z M 14.359375 -20.0625 "/></g></g></g><g fill="#000000" fill-opacity="1"><g transform="translate(279.727303, 204.375432)"><g><path d="M 3.515625 0 L 3.515625 -50.296875 L 13.859375 -50.296875 L 13.859375 0 Z M 3.515625 0 "/></g></g></g><g fill="#000000" fill-opacity="1"><g transform="translate(297.09555, 204.375432)"><g><path d="M 6.34375 -3.5625 C 3.007812 -6.53125 1.34375 -10.332031 1.34375 -14.96875 C 1.34375 -19.613281 3.078125 -23.425781 6.546875 -26.40625 C 10.015625 -29.382812 14.304688 -30.875 19.421875 -30.875 C 24.453125 -30.875 28.691406 -29.375 32.140625 -26.375 C 35.585938 -23.375 37.3125 -19.570312 37.3125 -14.96875 C 37.3125 -10.375 35.625 -6.582031 32.25 -3.59375 C 28.875 -0.613281 24.597656 0.875 19.421875 0.875 C 14.035156 0.875 9.675781 -0.601562 6.34375 -3.5625 Z M 14.359375 -20.0625 C 13.015625 -18.738281 12.34375 -17.039062 12.34375 -14.96875 C 12.34375 -12.90625 12.984375 -11.21875 14.265625 -9.90625 C 15.554688 -8.601562 17.253906 -7.953125 19.359375 -7.953125 C 21.390625 -7.953125 23.054688 -8.613281 24.359375 -9.9375 C 25.660156 -11.269531 26.3125 -12.945312 26.3125 -14.96875 C 26.3125 -17.039062 25.640625 -18.738281 24.296875 -20.0625 C 22.953125 -21.382812 21.304688 -22.046875 19.359375 -22.046875 C 17.367188 -22.046875 15.703125 -21.382812 14.359375 -20.0625 Z M 14.359375 -20.0625 "/></g></g></g><g mask="url(#dce00ed57c)"><g transform="matrix(1, 0, 0, 1, 37, 149)"><g clip-path="url(#9ef64ad068)"><g clip-path="url(#2b8fc13c67)"><g clip-path="url(#7efae60ed5)"><g clip-path="url(#97115591ef)"><path fill="#1b1e31" d="M 33.707031 0.671875 L 60.953125 27.652344 L 27.746094 61.191406 L 0.496094 34.210938 Z M 33.707031 0.671875 " fill-opacity="1" fill-rule="nonzero"/></g></g></g></g></g></g></svg>