<?xml version="1.0" standalone="no"?>
<!DOCTYPE svg PUBLIC "-//W3C//DTD SVG 20010904//EN"
 "http://www.w3.org/TR/2001/REC-SVG-20010904/DTD/svg10.dtd">
<svg version="1.0" xmlns="http://www.w3.org/2000/svg"
 width="498.000000pt" height="218.000000pt" viewBox="0 0 498.000000 218.000000"
 preserveAspectRatio="xMidYMid meet">

<g transform="translate(0.000000,218.000000) scale(0.100000,-0.100000)"
fill="#000000" stroke="none">
<path d="M885 1561 c-58 -14 -91 -41 -235 -185 l-144 -146 44 -45 44 -45 -43
-44 -44 -45 81 -88 c44 -48 124 -131 177 -183 l95 -95 154 155 c171 172 181
189 176 305 -1 33 -1 74 1 90 8 81 1 152 -19 191 -53 103 -177 162 -287 135z"/>
<path d="M3780 1103 l0 -338 65 1 66 2 0 333 0 334 -66 3 -65 3 0 -338z"/>
<path d="M1512 1090 l3 -322 70 0 70 0 3 114 3 115 78 6 c50 3 92 12 118 26
95 48 135 152 99 254 -18 48 -41 74 -91 100 -35 18 -61 22 -198 25 l-157 4 2
-322z m266 180 c26 -16 32 -26 32 -56 0 -19 -4 -44 -10 -54 -12 -22 -60 -40
-106 -40 l-34 0 0 85 0 85 43 0 c24 0 56 -8 75 -20z"/>
<path d="M2958 1238 c-3 -70 -4 -73 -28 -73 -23 0 -25 -4 -28 -53 l-3 -52 30
0 31 0 0 -101 c0 -112 14 -158 58 -187 30 -20 125 -22 159 -4 22 12 22 12 4
64 -16 47 -21 52 -47 53 l-29 0 -3 88 -3 87 41 0 40 0 0 50 0 50 -40 0 -40 0
0 75 0 75 -70 0 -69 0 -3 -72z"/>
<path d="M2168 1166 c-158 -44 -217 -220 -112 -336 46 -51 110 -75 195 -74
127 1 218 76 227 188 5 67 -9 113 -50 155 -65 66 -168 93 -260 67z m122 -121
c84 -44 43 -175 -55 -175 -40 0 -85 50 -85 95 0 27 8 44 29 66 33 33 67 37
111 14z"/>
<path d="M2754 1161 c-23 -10 -45 -25 -50 -32 -6 -10 -10 -8 -14 9 -3 13 -8
23 -12 23 -5 -1 -35 -1 -68 -1 l-60 0 0 -194 0 -194 66 -4 c36 -1 68 -1 70 1
2 2 4 57 4 122 0 99 3 120 18 140 20 24 67 31 109 16 19 -7 25 -2 48 42 14 28
25 55 25 60 0 9 -61 31 -85 31 -5 0 -29 -9 -51 -19z"/>
<path d="M3360 1168 c-156 -44 -193 -280 -59 -378 67 -48 161 -48 223 1 l26
20 0 -23 c0 -22 4 -23 65 -23 l65 0 0 200 0 200 -67 -2 c-56 -1 -67 -4 -65
-17 4 -20 -12 -21 -27 -2 -11 13 -87 37 -113 35 -7 0 -29 -5 -48 -11z m164
-138 c30 -30 29 -102 -2 -132 -29 -30 -100 -32 -131 -4 -44 40 -31 134 22 156
32 14 88 4 111 -20z"/>
<path d="M4157 1170 c-143 -36 -216 -174 -156 -296 36 -75 113 -117 213 -118
76 0 127 17 173 57 87 77 96 198 20 284 -55 62 -164 94 -250 73z m124 -139
c21 -22 29 -39 29 -66 0 -27 -8 -44 -29 -66 -33 -32 -67 -37 -110 -14 -33 17
-41 33 -41 85 0 30 6 44 31 64 41 35 83 34 120 -3z"/>
</g>
</svg>
