<svg xmlns="http://www.w3.org/2000/svg" xmlns:xlink="http://www.w3.org/1999/xlink" width="500" zoomAndPan="magnify" viewBox="0 0 375 374.999991" height="500" preserveAspectRatio="xMidYMid meet" version="1.0"><defs><filter x="0%" y="0%" width="100%" height="100%" id="4358987457"><feColorMatrix values="0 0 0 0 1 0 0 0 0 1 0 0 0 0 1 0 0 0 1 0" color-interpolation-filters="sRGB"/></filter><clipPath id="9f5e34c711"><path d="M 84 64 L 264 64 L 264 245 L 84 245 Z M 84 64 " clip-rule="nonzero"/></clipPath><clipPath id="02d8c9b8d7"><path d="M 197.699219 37.5 L 290.980469 129.867188 L 176.96875 245.011719 L 83.683594 152.648438 Z M 197.699219 37.5 " clip-rule="nonzero"/></clipPath><clipPath id="8fe74d8aa3"><path d="M 226.140625 71 C 232.519531 74.09375 239.027344 78.425781 244.363281 83.707031 C 249.699219 88.992188 253.929688 94.992188 257.050781 101.300781 C 257.101562 101.453125 257.203125 101.554688 257.253906 101.703125 C 268.582031 125.804688 264.660156 155.941406 245.035156 176.265625 L 177.300781 244.675781 L 84.015625 152.308594 L 151.703125 83.953125 C 171.980469 63.972656 201.878906 59.554688 226.140625 71 Z M 226.140625 71 " clip-rule="nonzero"/></clipPath><mask id="f391521fe5"><g filter="url(#4358987457)"><rect x="-37.5" width="450" fill="#000000" y="-37.499999" height="449.999989" fill-opacity="0.5"/></g></mask><clipPath id="7bf00de0d4"><path d="M 1 27 L 181 27 L 181 207.921875 L 1 207.921875 Z M 1 27 " clip-rule="nonzero"/></clipPath><clipPath id="30c5406cf1"><path d="M 114.699219 0.324219 L 207.980469 92.691406 L 93.96875 207.835938 L 0.683594 115.472656 Z M 114.699219 0.324219 " clip-rule="nonzero"/></clipPath><clipPath id="6c0c1edfc4"><path d="M 143.140625 33.824219 C 149.519531 36.917969 156.027344 41.25 161.363281 46.53125 C 166.699219 51.816406 170.929688 57.816406 174.050781 64.125 C 174.101562 64.277344 174.203125 64.378906 174.253906 64.527344 C 185.582031 88.628906 181.660156 118.765625 162.035156 139.089844 L 94.300781 207.5 L 1.015625 115.136719 L 68.703125 46.777344 C 88.980469 26.796875 118.878906 22.382812 143.140625 33.824219 Z M 143.140625 33.824219 " clip-rule="nonzero"/></clipPath><clipPath id="33471b2da5"><rect x="0" width="209" y="0" height="208"/></clipPath><mask id="3fe462f03c"><g filter="url(#4358987457)"><rect x="-37.5" width="450" fill="#000000" y="-37.499999" height="449.999989" fill-opacity="0.7"/></g></mask><clipPath id="80fbc36068"><path d="M 1 28 L 181 28 L 181 208.601562 L 1 208.601562 Z M 1 28 " clip-rule="nonzero"/></clipPath><clipPath id="ca491165bb"><path d="M 114.699219 0.914062 L 207.980469 93.277344 L 93.96875 208.425781 L 0.683594 116.058594 Z M 114.699219 0.914062 " clip-rule="nonzero"/></clipPath><clipPath id="017c8ccffc"><path d="M 143.140625 34.410156 C 149.519531 37.503906 156.027344 41.835938 161.363281 47.121094 C 166.699219 52.402344 170.929688 58.402344 174.050781 64.714844 C 174.101562 64.867188 174.203125 64.964844 174.253906 65.117188 C 185.582031 89.214844 181.660156 119.355469 162.035156 139.679688 L 94.300781 208.089844 L 1.015625 115.722656 L 68.703125 47.363281 C 88.980469 27.386719 118.878906 22.96875 143.140625 34.410156 Z M 143.140625 34.410156 " clip-rule="nonzero"/></clipPath><clipPath id="ac60e2db9f"><rect x="0" width="209" y="0" height="209"/></clipPath></defs><g clip-path="url(#9f5e34c711)"><g clip-path="url(#02d8c9b8d7)"><g clip-path="url(#8fe74d8aa3)"><path fill="#ffffff" d="M 197.699219 37.5 L 290.980469 129.867188 L 177.328125 244.648438 L 84.042969 152.28125 Z M 197.699219 37.5 " fill-opacity="1" fill-rule="nonzero"/></g></g></g><g mask="url(#f391521fe5)"><g transform="matrix(1, 0, 0, 1, 83, 130)"><g clip-path="url(#33471b2da5)"><g clip-path="url(#7bf00de0d4)"><g clip-path="url(#30c5406cf1)"><g clip-path="url(#6c0c1edfc4)"><path fill="#ffffff" d="M 114.699219 0.324219 L 207.980469 92.691406 L 94.328125 207.472656 L 1.042969 115.105469 Z M 114.699219 0.324219 " fill-opacity="1" fill-rule="nonzero"/></g></g></g></g></g></g><g mask="url(#3fe462f03c)"><g transform="matrix(1, 0, 0, 1, 83, 83)"><g clip-path="url(#ac60e2db9f)"><g clip-path="url(#80fbc36068)"><g clip-path="url(#ca491165bb)"><g clip-path="url(#017c8ccffc)"><path fill="#ffffff" d="M 114.699219 0.914062 L 207.980469 93.277344 L 94.328125 208.058594 L 1.042969 115.695312 Z M 114.699219 0.914062 " fill-opacity="1" fill-rule="nonzero"/></g></g></g></g></g></g></svg>