<svg xmlns="http://www.w3.org/2000/svg" xmlns:xlink="http://www.w3.org/1999/xlink" zoomAndPan="magnify" viewBox="0 0 373.5 164.249993"  preserveAspectRatio="xMidYMid meet" version="1.0"><defs><filter x="0%" y="0%" width="100%" height="100%" id="5c858e0dd8"><feColorMatrix values="0 0 0 0 1 0 0 0 0 1 0 0 0 0 1 0 0 0 1 0" color-interpolation-filters="sRGB"/></filter><g/><clipPath id="c0771aca46"><path d="M 37 45 L 91 45 L 91 99 L 37 99 Z M 37 45 " clip-rule="nonzero"/></clipPath><clipPath id="6850cac9ab"><path d="M 71.078125 37.742188 L 98.238281 64.636719 L 65.140625 98.066406 L 37.976562 71.171875 Z M 71.078125 37.742188 " clip-rule="nonzero"/></clipPath><clipPath id="b1875f56df"><path d="M 79.359375 47.496094 C 81.21875 48.398438 83.113281 49.660156 84.667969 51.195312 C 86.21875 52.734375 87.453125 54.484375 88.359375 56.320312 C 88.375 56.363281 88.40625 56.394531 88.417969 56.4375 C 91.71875 63.453125 90.578125 72.230469 84.863281 78.148438 L 65.140625 98.066406 L 37.976562 71.171875 L 57.683594 51.269531 C 63.589844 45.453125 72.296875 44.164062 79.359375 47.496094 " clip-rule="nonzero"/></clipPath><mask id="d7310e946d"><g filter="url(#5c858e0dd8)"><rect x="-37.35" width="448.2" fill="#000000" y="-16.424999" height="197.099992" fill-opacity="0.498"/></g></mask><clipPath id="59d7418185"><path d="M 0.871094 8 L 54 8 L 54 61.1875 L 0.871094 61.1875 Z M 0.871094 8 " clip-rule="nonzero"/></clipPath><clipPath id="b2e92d5ab9"><path d="M 34.078125 0.769531 L 61.238281 27.664062 L 28.140625 61.097656 L 0.976562 34.199219 Z M 34.078125 0.769531 " clip-rule="nonzero"/></clipPath><clipPath id="c2da2758ee"><path d="M 42.359375 10.523438 C 44.21875 11.425781 46.113281 12.6875 47.667969 14.226562 C 49.21875 15.765625 50.453125 17.511719 51.359375 19.347656 C 51.375 19.394531 51.40625 19.421875 51.417969 19.464844 C 54.71875 26.484375 53.578125 35.257812 47.863281 41.175781 L 28.140625 61.097656 L 0.976562 34.199219 L 20.683594 14.296875 C 26.589844 8.480469 35.296875 7.191406 42.359375 10.523438 " clip-rule="nonzero"/></clipPath><clipPath id="c0a5039545"><rect x="0" width="62" y="0" height="62"/></clipPath><mask id="26e598127f"><g filter="url(#5c858e0dd8)"><rect x="-37.35" width="448.2" fill="#000000" y="-16.424999" height="197.099992" fill-opacity="0.698"/></g></mask><clipPath id="530fa2cc80"><path d="M 0.871094 8 L 54 8 L 54 60.808594 L 0.871094 60.808594 Z M 0.871094 8 " clip-rule="nonzero"/></clipPath><clipPath id="bc591fdad8"><path d="M 34.078125 0.257812 L 61.238281 27.152344 L 28.140625 60.582031 L 0.976562 33.6875 Z M 34.078125 0.257812 " clip-rule="nonzero"/></clipPath><clipPath id="b457c1d9fe"><path d="M 42.359375 10.011719 C 44.21875 10.910156 46.113281 12.171875 47.667969 13.710938 C 49.21875 15.25 50.453125 16.996094 51.359375 18.835938 C 51.375 18.878906 51.40625 18.90625 51.417969 18.953125 C 54.71875 25.96875 53.578125 34.746094 47.863281 40.664062 L 28.140625 60.582031 L 0.976562 33.6875 L 20.683594 13.78125 C 26.589844 7.964844 35.296875 6.679688 42.359375 10.011719 " clip-rule="nonzero"/></clipPath><clipPath id="952b5dee78"><rect x="0" width="62" y="0" height="61"/></clipPath></defs><g clip-path="url(#c0771aca46)"><g clip-path="url(#6850cac9ab)"><g clip-path="url(#b1875f56df)"><path fill="#ffffff" d="M 71.078125 37.742188 L 98.238281 64.636719 L 65.140625 98.066406 L 37.976562 71.171875 Z M 71.078125 37.742188 " fill-opacity="1" fill-rule="nonzero"/></g></g></g><g mask="url(#d7310e946d)"><g transform="matrix(1, 0, 0, 1, 37, 64)"><g clip-path="url(#c0a5039545)"><g clip-path="url(#59d7418185)"><g clip-path="url(#b2e92d5ab9)"><g clip-path="url(#c2da2758ee)"><path fill="#ffffff" d="M 34.078125 0.769531 L 61.238281 27.664062 L 28.140625 61.097656 L 0.976562 34.199219 Z M 34.078125 0.769531 " fill-opacity="1" fill-rule="nonzero"/></g></g></g></g></g></g><g mask="url(#26e598127f)"><g transform="matrix(1, 0, 0, 1, 37, 51)"><g clip-path="url(#952b5dee78)"><g clip-path="url(#530fa2cc80)"><g clip-path="url(#bc591fdad8)"><g clip-path="url(#b457c1d9fe)"><path fill="#ffffff" d="M 34.078125 0.257812 L 61.238281 27.152344 L 28.140625 60.582031 L 0.976562 33.6875 Z M 34.078125 0.257812 " fill-opacity="1" fill-rule="nonzero"/></g></g></g></g></g></g><g fill="#ffffff" fill-opacity="1"><g transform="translate(110.20577, 106.107376)"><g><path d="M 3.5 -48.09375 L 21.046875 -48.09375 C 25.941406 -48.09375 29.90625 -46.828125 32.9375 -44.296875 C 35.96875 -41.773438 37.484375 -38.101562 37.484375 -33.28125 C 37.484375 -28.46875 35.945312 -24.691406 32.875 -21.953125 C 29.8125 -19.210938 25.867188 -17.84375 21.046875 -17.84375 L 14.453125 -17.84375 L 14.453125 0 L 3.5 0 Z M 14.453125 -26.578125 L 17.546875 -26.578125 C 19.992188 -26.578125 22.003906 -27.070312 23.578125 -28.0625 C 25.148438 -29.0625 25.9375 -30.6875 25.9375 -32.9375 C 25.9375 -35.226562 25.148438 -36.867188 23.578125 -37.859375 C 22.003906 -38.847656 19.992188 -39.34375 17.546875 -39.34375 L 14.453125 -39.34375 Z M 14.453125 -26.578125 "/></g></g></g><g fill="#ffffff" fill-opacity="1"><g transform="translate(149.026074, 106.107376)"><g><path d="M 6.328125 -3.546875 C 3.003906 -6.503906 1.34375 -10.296875 1.34375 -14.921875 C 1.34375 -19.546875 3.070312 -23.34375 6.53125 -26.3125 C 9.988281 -29.289062 14.265625 -30.78125 19.359375 -30.78125 C 24.367188 -30.78125 28.59375 -29.28125 32.03125 -26.28125 C 35.46875 -23.289062 37.1875 -19.503906 37.1875 -14.921875 C 37.1875 -10.335938 35.503906 -6.554688 32.140625 -3.578125 C 28.785156 -0.609375 24.523438 0.875 19.359375 0.875 C 13.992188 0.875 9.648438 -0.597656 6.328125 -3.546875 Z M 14.3125 -20 C 12.96875 -18.675781 12.296875 -16.984375 12.296875 -14.921875 C 12.296875 -12.859375 12.9375 -11.175781 14.21875 -9.875 C 15.5 -8.570312 17.191406 -7.921875 19.296875 -7.921875 C 21.316406 -7.921875 22.976562 -8.582031 24.28125 -9.90625 C 25.582031 -11.226562 26.234375 -12.898438 26.234375 -14.921875 C 26.234375 -16.984375 25.5625 -18.675781 24.21875 -20 C 22.882812 -21.320312 21.242188 -21.984375 19.296875 -21.984375 C 17.316406 -21.984375 15.65625 -21.320312 14.3125 -20 Z M 14.3125 -20 "/></g></g></g><g fill="#ffffff" fill-opacity="1"><g transform="translate(187.554932, 106.107376)"><g><path d="M 3.5 0 L 3.5 -29.90625 L 13.8125 -29.90625 L 13.8125 -25.59375 L 13.9375 -25.59375 C 14.007812 -25.75 14.132812 -25.941406 14.3125 -26.171875 C 14.488281 -26.410156 14.867188 -26.820312 15.453125 -27.40625 C 16.035156 -27.988281 16.65625 -28.507812 17.3125 -28.96875 C 17.976562 -29.4375 18.832031 -29.851562 19.875 -30.21875 C 20.925781 -30.59375 21.992188 -30.78125 23.078125 -30.78125 C 24.210938 -30.78125 25.320312 -30.625 26.40625 -30.3125 C 27.5 -30 28.296875 -29.6875 28.796875 -29.375 L 29.609375 -28.921875 L 25.296875 -20.171875 C 24.015625 -21.253906 22.226562 -21.796875 19.9375 -21.796875 C 18.695312 -21.796875 17.628906 -21.523438 16.734375 -20.984375 C 15.835938 -20.441406 15.203125 -19.78125 14.828125 -19 C 14.460938 -18.226562 14.203125 -17.566406 14.046875 -17.015625 C 13.890625 -16.472656 13.8125 -16.046875 13.8125 -15.734375 L 13.8125 0 Z M 3.5 0 "/></g></g></g><g fill="#ffffff" fill-opacity="1"><g transform="translate(216.582724, 106.107376)"><g><path d="M 5.25 -29.90625 L 5.25 -41.046875 L 15.5625 -41.046875 L 15.5625 -29.90625 L 21.859375 -29.90625 L 21.859375 -22.03125 L 15.5625 -22.03125 L 15.5625 -12.53125 C 15.5625 -9.769531 16.335938 -8.390625 17.890625 -8.390625 C 18.285156 -8.390625 18.695312 -8.46875 19.125 -8.625 C 19.550781 -8.78125 19.878906 -8.9375 20.109375 -9.09375 L 20.46875 -9.328125 L 23.03125 -0.984375 C 20.8125 0.253906 18.285156 0.875 15.453125 0.875 C 13.503906 0.875 11.832031 0.535156 10.4375 -0.140625 C 9.039062 -0.828125 7.976562 -1.742188 7.25 -2.890625 C 6.53125 -4.035156 6.015625 -5.238281 5.703125 -6.5 C 5.398438 -7.757812 5.25 -9.109375 5.25 -10.546875 L 5.25 -22.03125 L 0.9375 -22.03125 L 0.9375 -29.90625 Z M 5.25 -29.90625 "/></g></g></g><g fill="#ffffff" fill-opacity="1"><g transform="translate(239.606773, 106.107376)"><g><path d="M 5.53125 -3.703125 C 2.738281 -6.753906 1.34375 -10.492188 1.34375 -14.921875 C 1.34375 -19.347656 2.738281 -23.097656 5.53125 -26.171875 C 8.332031 -29.242188 11.890625 -30.78125 16.203125 -30.78125 C 20.171875 -30.78125 23.4375 -29.535156 26 -27.046875 L 26 -29.90625 L 36.3125 -29.90625 L 36.3125 0 L 26.109375 0 L 26.109375 -3.375 L 26 -3.375 C 23.4375 -0.539062 20.171875 0.875 16.203125 0.875 C 11.890625 0.875 8.332031 -0.648438 5.53125 -3.703125 Z M 14.3125 -20 C 12.96875 -18.675781 12.296875 -16.984375 12.296875 -14.921875 C 12.296875 -12.859375 12.9375 -11.175781 14.21875 -9.875 C 15.5 -8.570312 17.191406 -7.921875 19.296875 -7.921875 C 21.316406 -7.921875 22.976562 -8.582031 24.28125 -9.90625 C 25.582031 -11.226562 26.234375 -12.898438 26.234375 -14.921875 C 26.234375 -16.984375 25.5625 -18.675781 24.21875 -20 C 22.882812 -21.320312 21.242188 -21.984375 19.296875 -21.984375 C 17.316406 -21.984375 15.65625 -21.320312 14.3125 -20 Z M 14.3125 -20 "/></g></g></g><g fill="#ffffff" fill-opacity="1"><g transform="translate(279.417985, 106.107376)"><g><path d="M 3.5 0 L 3.5 -50.140625 L 13.8125 -50.140625 L 13.8125 0 Z M 3.5 0 "/></g></g></g><g fill="#ffffff" fill-opacity="1"><g transform="translate(296.729737, 106.107376)"><g><path d="M 6.328125 -3.546875 C 3.003906 -6.503906 1.34375 -10.296875 1.34375 -14.921875 C 1.34375 -19.546875 3.070312 -23.34375 6.53125 -26.3125 C 9.988281 -29.289062 14.265625 -30.78125 19.359375 -30.78125 C 24.367188 -30.78125 28.59375 -29.28125 32.03125 -26.28125 C 35.46875 -23.289062 37.1875 -19.503906 37.1875 -14.921875 C 37.1875 -10.335938 35.503906 -6.554688 32.140625 -3.578125 C 28.785156 -0.609375 24.523438 0.875 19.359375 0.875 C 13.992188 0.875 9.648438 -0.597656 6.328125 -3.546875 Z M 14.3125 -20 C 12.96875 -18.675781 12.296875 -16.984375 12.296875 -14.921875 C 12.296875 -12.859375 12.9375 -11.175781 14.21875 -9.875 C 15.5 -8.570312 17.191406 -7.921875 19.296875 -7.921875 C 21.316406 -7.921875 22.976562 -8.582031 24.28125 -9.90625 C 25.582031 -11.226562 26.234375 -12.898438 26.234375 -14.921875 C 26.234375 -16.984375 25.5625 -18.675781 24.21875 -20 C 22.882812 -21.320312 21.242188 -21.984375 19.296875 -21.984375 C 17.316406 -21.984375 15.65625 -21.320312 14.3125 -20 Z M 14.3125 -20 "/></g></g></g></svg>